<?xml version="1.0" encoding="iso-8859-1"?>
<!-- Uploaded to: SVG Repo, www.svgrepo.com, Generator: SVG Repo Mixer Tools -->
<svg version="1.1" id="Layer_1" xmlns="http://www.w3.org/2000/svg" xmlns:xlink="http://www.w3.org/1999/xlink" 
	 viewBox="0 0 512.001 512.001" xml:space="preserve">
<polyline style="fill:#F4C063;" points="319.842,254.126 319.842,153.941 192.15,153.941 192.15,254.126 "/>
<polyline style="fill:#D5A03C;" points="228.074,254.126 228.074,153.941 192.15,153.941 192.15,254.126 "/>
<rect x="172.234" y="254.134" style="fill:#EC589B;" width="167.529" height="249.656"/>
<rect x="172.234" y="254.134" style="fill:#D3468D;" width="42.704" height="249.656"/>
<path style="fill:#EC589B;" d="M301.938,86.345l0.109,0.066v67.531h-92.18V26.655l0.164,0.11
	c-0.318-5.847,1.073-10.742,4.424-14.093c5.015-5.015,13.524-5.661,23.477-2.672c11.728,3.515,25.47,12.078,37.888,24.496
	C293.681,52.355,303.559,72.931,301.938,86.345z"/>
<path style="fill:#D3468D;" d="M237.934,75.679v78.262h-28.066V26.655l0.164,0.11c0.712,13.239,10.293,31.34,26.237,47.284
	C236.816,74.595,237.376,75.143,237.934,75.679z"/>
<ellipse transform="matrix(-0.7071 -0.7071 0.7071 -0.7071 398.7219 273.6998)" style="fill:#F676B6;" cx="256.046" cy="54.272" rx="58.826" ry="27.967"/>
<path d="M339.762,304.849c4.537,0,8.213-3.677,8.213-8.213v-42.505c0-4.536-3.676-8.213-8.213-8.213h-11.706v-91.976
	c0-4.536-3.676-8.213-8.213-8.213h-9.582c0,0-0.015-59.835-0.039-60.09c1.048-16.049-9.25-37.614-28.588-56.953
	c-6.001-6-12.394-11.271-19.005-15.669c-3.776-2.512-8.874-1.487-11.386,2.29c-2.512,3.777-1.486,8.874,2.291,11.386
	c5.707,3.796,11.255,8.375,16.487,13.607c21.847,21.847,27.516,44.063,21.822,49.758c-5.699,5.694-27.912,0.025-49.758-21.821
	c-21.847-21.847-27.516-44.063-21.822-49.757c2.512-2.511,8.237-2.745,15.316-0.622c4.346,1.301,8.923-1.163,10.225-5.508
	c1.303-4.345-1.163-8.922-5.507-10.225c-13.347-4.001-24.586-2.318-31.649,4.741c-4.618,4.618-6.825,10.922-6.838,18.234
	c-0.096,0.504-0.151,120.629-0.151,120.629h-9.505c-4.537,0-8.213,3.677-8.213,8.213v29.905c0,4.536,3.676,8.213,8.213,8.213
	s8.213-3.677,8.213-8.213v-21.693h9.505h92.181h9.582v83.763H200.367v-34.696c0-4.536-3.676-8.213-8.213-8.213
	s-8.213,3.677-8.213,8.213v34.696h-11.707c-4.537,0-8.213,3.677-8.213,8.213v249.655c0,4.536,3.676,8.213,8.213,8.213h167.531
	c4.537,0,8.213-3.677,8.213-8.213V320.726c0-4.536-3.676-8.213-8.213-8.213c-4.537,0-8.213,3.677-8.213,8.213v174.847h-151.11
	v-233.23h151.106v34.292C331.549,301.172,335.226,304.849,339.762,304.849z M218.08,65.558c3.584,4.823,7.714,9.624,12.386,14.295
	c18.444,18.443,38.911,28.668,54.688,28.668c3.096,0,5.997-0.419,8.681-1.222v38.431H218.08L218.08,65.558L218.08,65.558z"/>
</svg>